static optimization
version=1
nRows=9
nColumns=93
inDegrees=yes
endheader
time	glut_med1_r	glut_med2_r	glut_med3_r	glut_min1_r	glut_min2_r	glut_min3_r	semimem_r	semiten_r	bifemlh_r	bifemsh_r	sar_r	add_long_r	add_brev_r	add_mag1_r	add_mag2_r	add_mag3_r	tfl_r	pect_r	grac_r	glut_max1_r	glut_max2_r	glut_max3_r	iliacus_r	psoas_r	quad_fem_r	gem_r	peri_r	rect_fem_r	vas_med_r	vas_int_r	vas_lat_r	med_gas_r	lat_gas_r	soleus_r	tib_post_r	flex_dig_r	flex_hal_r	tib_ant_r	per_brev_r	per_long_r	per_tert_r	ext_dig_r	ext_hal_r	glut_med1_l	glut_med2_l	glut_med3_l	glut_min1_l	glut_min2_l	glut_min3_l	semimem_l	semiten_l	bifemlh_l	bifemsh_l	sar_l	add_long_l	add_brev_l	add_mag1_l	add_mag2_l	add_mag3_l	tfl_l	pect_l	grac_l	glut_max1_l	glut_max2_l	glut_max3_l	iliacus_l	psoas_l	quad_fem_l	gem_l	peri_l	rect_fem_l	vas_med_l	vas_int_l	vas_lat_l	med_gas_l	lat_gas_l	soleus_l	tib_post_l	flex_dig_l	flex_hal_l	tib_ant_l	per_brev_l	per_long_l	per_tert_l	ext_dig_l	ext_hal_l	ercspn_r	ercspn_l	intobl_r	intobl_l	extobl_r	extobl_l
0.876000	0.364146	0.224215	0.195332	0.100993	0.105541	0.106529	0.000000	0.000000	0.000000	0.000000	0.015066	0.000000	0.000000	0.000000	0.000000	0.000000	0.085221	0.000000	0.000000	0.154584	0.138747	0.000000	0.000000	0.000000	0.000000	0.000000	0.069250	0.051841	0.041054	0.043176	0.061352	0.054596	0.024605	0.180732	0.023265	0.004302	0.006054	0.000000	0.003187	0.010400	0.000000	0.000000	0.000000	0.000000	0.000000	0.000000	0.000000	0.000000	0.000000	0.000000	0.000000	0.000000	0.000000	0.000000	0.061782	0.033698	0.029474	0.024428	0.014590	0.000000	0.013132	0.009123	0.000000	0.000000	0.000000	0.032175	0.030757	0.000000	0.000000	0.000000	0.009523	0.010698	0.011812	0.015096	0.000000	0.000000	0.000000	0.000000	0.000000	0.000000	0.019994	0.000000	0.000000	0.002489	0.010126	0.003375	0.000000	0.000000	0.000000	0.000000	0.000000	0.000000
0.892000	0.343306	0.211501	0.184020	0.095511	0.099739	0.100574	0.000000	0.000000	0.000000	0.000000	0.016575	0.000000	0.000000	0.000000	0.000000	0.000000	0.081700	0.000000	0.000000	0.143356	0.124234	0.000000	0.000000	0.000000	0.000000	0.000000	0.065237	0.042694	0.021347	0.022440	0.031840	0.077914	0.034957	0.202063	0.025988	0.004803	0.006766	0.000000	0.003558	0.011630	0.000000	0.000000	0.000000	0.000000	0.000000	0.000000	0.000000	0.000000	0.000000	0.000000	0.000000	0.000000	0.000000	0.000000	0.046174	0.024401	0.022585	0.016006	0.003017	0.000000	0.010588	0.007170	0.000000	0.000000	0.001616	0.027993	0.028374	0.014640	0.001879	0.000000	0.018811	0.007328	0.008099	0.010311	0.000000	0.000000	0.000000	0.000000	0.000000	0.000000	0.016836	0.000000	0.000000	0.002089	0.008515	0.002841	0.000000	0.000000	0.000000	0.000000	0.000000	0.000000
0.908000	0.333282	0.214153	0.195590	0.093493	0.099432	0.102814	0.000000	0.000000	0.000000	0.000000	0.022372	0.000000	0.000000	0.000000	0.000000	0.000000	0.085329	0.000000	0.000000	0.143345	0.116798	0.000000	0.000000	0.000000	0.000000	0.000000	0.074161	0.048591	0.000081	0.000083	0.000108	0.100398	0.044920	0.218799	0.028121	0.005194	0.007324	0.000000	0.003848	0.012597	0.000000	0.000000	0.000000	0.000000	0.000000	0.000000	0.000000	0.000000	0.000000	0.000000	0.000000	0.000000	0.000000	0.003533	0.020888	0.009422	0.009290	0.003416	0.000000	0.000000	0.005611	0.002740	0.000000	0.000000	0.000000	0.019953	0.021548	0.020496	0.005774	0.004268	0.025682	0.003520	0.003892	0.004948	0.000000	0.000000	0.000000	0.000000	0.000000	0.000000	0.015507	0.000000	0.000000	0.001916	0.007833	0.002614	0.000000	0.000000	0.000000	0.000000	0.000000	0.000000
0.924000	0.328000	0.228782	0.229422	0.097015	0.107022	0.115802	0.000000	0.000000	0.000000	0.046702	0.046766	0.000000	0.000000	0.000000	0.000000	0.000000	0.108537	0.000000	0.000000	0.131442	0.067237	0.000000	0.000000	0.004461	0.000000	0.000000	0.101518	0.048655	0.000000	0.000000	0.000000	0.178001	0.079103	0.204796	0.026306	0.004856	0.006853	0.000000	0.003599	0.011793	0.000000	0.000000	0.000000	0.000000	0.006739	0.020665	0.000000	0.001874	0.006206	0.000000	0.000000	0.000000	0.007118	0.011140	0.000000	0.000000	0.000000	0.000000	0.000000	0.011364	0.000000	0.000000	0.001461	0.000000	0.000000	0.015975	0.018463	0.007856	0.005623	0.016775	0.032169	0.000000	0.000000	0.000000	0.000000	0.000000	0.000000	0.000000	0.000000	0.000000	0.015805	0.000000	0.000000	0.001948	0.007975	0.002664	0.000000	0.000000	0.000000	0.000000	0.000000	0.000000
0.940000	0.322771	0.231745	0.239065	0.097625	0.108781	0.119188	0.000000	0.000000	0.000000	0.074037	0.055129	0.000000	0.000000	0.000000	0.000000	0.000000	0.114182	0.000000	0.000000	0.124702	0.044614	0.000000	0.026659	0.034954	0.000000	0.000000	0.109671	0.020930	0.000000	0.000000	0.000000	0.231918	0.102888	0.212097	0.027230	0.005024	0.007097	0.000000	0.003724	0.012218	0.000000	0.000000	0.000000	0.008118	0.031913	0.057831	0.005200	0.012259	0.021181	0.000000	0.000000	0.000000	0.033357	0.027152	0.000000	0.000000	0.000000	0.000000	0.000000	0.029304	0.000000	0.000000	0.016323	0.000000	0.000000	0.023692	0.028928	0.003263	0.009918	0.039763	0.033528	0.000000	0.000000	0.000000	0.001446	0.000000	0.000000	0.000000	0.000000	0.000000	0.019741	0.000000	0.000000	0.002426	0.009954	0.003328	0.000000	0.000000	0.000000	0.000000	0.000000	0.000000
0.956000	0.312095	0.231520	0.245352	0.095139	0.107248	0.119276	0.000000	0.000000	0.000000	0.114071	0.057401	0.000000	0.000000	0.000000	0.000000	0.000000	0.108641	0.000000	0.000000	0.125141	0.041172	0.000000	0.034176	0.042894	0.000000	0.000000	0.114202	0.000000	0.000000	0.000000	0.000000	0.307031	0.135981	0.212926	0.027323	0.005040	0.007126	0.000000	0.003736	0.012273	0.000000	0.000000	0.000000	0.016176	0.050723	0.089781	0.008611	0.019440	0.033018	0.000000	0.000000	0.000000	0.057555	0.042207	0.000000	0.000000	0.000000	0.000000	0.000000	0.044563	0.000000	0.000000	0.027705	0.001925	0.000000	0.033422	0.041621	0.002845	0.015058	0.061004	0.036466	0.000000	0.000000	0.000000	0.006937	0.001336	0.000000	0.000000	0.000000	0.000000	0.032090	0.000000	0.000000	0.003936	0.016173	0.005411	0.000000	0.000000	0.000000	0.000000	0.000000	0.000000
0.972000	0.293232	0.224400	0.243983	0.090727	0.103340	0.116434	0.037207	0.000000	0.000000	0.144002	0.059095	0.000000	0.000000	0.000000	0.000000	0.000000	0.102865	0.000000	0.000000	0.118401	0.029187	0.000000	0.048045	0.057157	0.000000	0.000000	0.115740	0.000000	0.000000	0.000000	0.000000	0.369331	0.163441	0.223796	0.028702	0.005292	0.007489	0.000000	0.003922	0.012904	0.000000	0.000000	0.000000	0.019471	0.062698	0.111616	0.010415	0.024055	0.041061	0.000000	0.000000	0.000000	0.078533	0.054563	0.000000	0.000000	0.000000	0.000000	0.000000	0.056291	0.000000	0.000000	0.034028	0.001101	0.000000	0.044156	0.054907	0.002734	0.019243	0.076449	0.037191	0.000000	0.000000	0.000000	0.011179	0.003009	0.000000	0.000000	0.000000	0.000000	0.042988	0.000000	0.000000	0.005266	0.021658	0.007249	0.000000	0.000000	0.000000	0.000000	0.000000	0.000000
0.988000	0.279871	0.214680	0.234279	0.088328	0.100283	0.112650	0.053066	0.000000	0.000000	0.161409	0.060668	0.000000	0.000000	0.000000	0.000000	0.000000	0.100174	0.000000	0.000000	0.104515	0.006274	0.000000	0.068280	0.077488	0.000000	0.000000	0.112352	0.000000	0.000000	0.000000	0.000000	0.410570	0.181619	0.237642	0.030456	0.005611	0.007948	0.000000	0.004160	0.013704	0.000000	0.000000	0.000000	0.019928	0.066646	0.119613	0.011254	0.026176	0.044615	0.000000	0.000000	0.000000	0.094821	0.063242	0.000000	0.000000	0.000000	0.000000	0.000000	0.064105	0.000000	0.000000	0.033092	0.000000	0.000000	0.056494	0.068983	0.001181	0.021458	0.083543	0.035979	0.000000	0.000000	0.000000	0.013944	0.004429	0.000000	0.000000	0.000000	0.000000	0.051632	0.000000	0.000000	0.006317	0.026006	0.008704	0.000000	0.000000	0.000000	0.000000	0.000000	0.000000
1.004000	0.283354	0.217850	0.238682	0.091221	0.103203	0.115570	0.056765	0.000000	0.000000	0.179268	0.064983	0.000000	0.000000	0.000000	0.000000	0.000000	0.103953	0.000000	0.000000	0.096869	0.000000	0.000000	0.091918	0.101727	0.000000	0.000000	0.115640	0.000000	0.000000	0.000000	0.000000	0.448256	0.198189	0.240612	0.030810	0.005670	0.008037	0.000000	0.004206	0.013872	0.000000	0.000000	0.000000	0.022309	0.064383	0.114068	0.012544	0.026987	0.044507	0.000000	0.000000	0.000000	0.106041	0.067990	0.000000	0.000000	0.000000	0.000000	0.000000	0.068669	0.000000	0.000000	0.025401	0.000000	0.000000	0.069568	0.082728	0.000000	0.020955	0.081815	0.032334	0.000000	0.000000	0.000000	0.015127	0.005491	0.000000	0.000000	0.000000	0.000000	0.057713	0.000000	0.000000	0.007050	0.029062	0.009721	0.000000	0.000000	0.000000	0.000000	0.000000	0.000000
